HIERARCHY
ROOT root
{
	OFFSET	0	13.1	24.9
	CHANNELS 6  Xposition Yposition Zposition Xrotation Yrotation Zrotation
	JOINT spine_1
	{
		OFFSET	0	9.99999	0
		CHANNELS 3  Xrotation Yrotation Zrotation
		JOINT spine_2
		{
			OFFSET	0	112	-10
			CHANNELS 3  Xrotation Yrotation Zrotation
			JOINT spine_3
			{
				OFFSET	0	206.5	19.3
				CHANNELS 3  Xrotation Yrotation Zrotation
				JOINT spine_4
				{
					OFFSET	0	110.4	14.6
					CHANNELS 3  Xrotation Yrotation Zrotation
					JOINT neck_1
					{
						OFFSET	0	71.8	-50.3
						CHANNELS 3  Xrotation Yrotation Zrotation
						JOINT neck_2
						{
							OFFSET	0	86.2	-25.8
							CHANNELS 3  Xrotation Yrotation Zrotation
							JOINT head_ee
							{
								OFFSET	0	179.8	-8.7
								CHANNELS 3  Xrotation Yrotation Zrotation
								End Site
								{
									OFFSET	1	0	0
								}
							}
						}
					}
					JOINT left_clavicle
					{
						OFFSET	-43.2	22.4	-70.8
						CHANNELS 3  Xrotation Yrotation Zrotation
						JOINT left_shoulder
						{
							OFFSET	-93.9	-5.79999	48.7
							CHANNELS 3  Xrotation Yrotation Zrotation
							JOINT left_elbow
							{
								OFFSET	-291.4	-30.8	15.2
								CHANNELS 3  Xrotation Yrotation Zrotation
								JOINT left_lowarm_twist
								{
									OFFSET	-110.7	-3.89999	13.6
									CHANNELS 3  Xrotation Yrotation Zrotation
									JOINT left_hand
									{
										OFFSET	-110.7	-3.89999	13.6
										CHANNELS 3  Xrotation Yrotation Zrotation
										JOINT left_ee
										{
											OFFSET	-80.8	-5.10001	12.1
											CHANNELS 3  Xrotation Yrotation Zrotation
											End Site
											{
												OFFSET	1	0	0
											}
										}
									}
								}
							}
						}
					}
					JOINT right_clavicle
					{
						OFFSET	43.2	22.4	-70.8
						CHANNELS 3  Xrotation Yrotation Zrotation
						JOINT right_shoulder
						{
							OFFSET	93.9	-5.79999	48.7
							CHANNELS 3  Xrotation Yrotation Zrotation
							JOINT right_elbow
							{
								OFFSET	291.4	-30.8	15.2
								CHANNELS 3  Xrotation Yrotation Zrotation
								JOINT right_lowarm_twist
								{
									OFFSET	110.7	-3.89999	13.6
									CHANNELS 3  Xrotation Yrotation Zrotation
									JOINT right_hand
									{
										OFFSET	110.7	-3.89999	13.6
										CHANNELS 3  Xrotation Yrotation Zrotation
										JOINT right_ee
										{
											OFFSET	80.8	-5.10001	12.1
											CHANNELS 3  Xrotation Yrotation Zrotation
											End Site
											{
												OFFSET	1	0	0
											}
										}
									}
								}
							}
						}
					}
				}
			}
		}
	}
	JOINT left_hip
	{
		OFFSET	-82.8	-127.5	0.300001
		CHANNELS 3  Xrotation Yrotation Zrotation
		JOINT left_knee
		{
			OFFSET	-28.2	-396.7	2.2
			CHANNELS 3  Xrotation Yrotation Zrotation
			JOINT left_ankle
			{
				OFFSET	-11.7	-411.3	35.4
				CHANNELS 3  Xrotation Yrotation Zrotation
				JOINT left_toes
				{
					OFFSET	0	-60	-88.6
					CHANNELS 3  Xrotation Yrotation Zrotation
					JOINT left_foot_ee
					{
						OFFSET	-22.5	-16.5	-42.2
						CHANNELS 3  Xrotation Yrotation Zrotation
						End Site
						{
							OFFSET	1	0	0
						}
					}
				}
			}
		}
	}
	JOINT right_hip
	{
		OFFSET	82.8	-127.5	0.300001
		CHANNELS 3  Xrotation Yrotation Zrotation
		JOINT right_knee
		{
			OFFSET	28.2	-396.7	2.2
			CHANNELS 3  Xrotation Yrotation Zrotation
			JOINT right_ankle
			{
				OFFSET	11.7	-411.3	35.4
				CHANNELS 3  Xrotation Yrotation Zrotation
				JOINT right_toes
				{
					OFFSET	0	-60	-88.6
					CHANNELS 3  Xrotation Yrotation Zrotation
					JOINT right_foot_ee
					{
						OFFSET	22.5	-16.5	-42.2
						CHANNELS 3  Xrotation Yrotation Zrotation
						End Site
						{
							OFFSET	1	0	0
						}
					}
				}
			}
		}
	}
}
MOTION
Frames: 13
Frame Time: 0.02
2508.34 692.103 -1528.82 -5.4838 46.3474 -2.92331 2.68167 0.72523 3.38644 2.68791 0.508402 3.42566 2.71709 -0.0586236 3.46264 2.70069 0.488644 3.42853 -8.21577 20.5592 0.272576 -8.46572 38.3232 5.05866 -0.0 0.0 -0.0 -3.17666 17.4901 -2.84488 2.0831 -4.12315 47.3106 12.3364 -80.636 10.48 3.09046 0.0985901 -0.382378 0.157639 -5.80547 -1.39808 -0.0 0.0 -0.0 11.5851 12.2072 -23.325 -35.7377 45.8954 -61.1382 0.902727 24.0931 -0.192651 18.6775 -0.275718 2.35941 -5.9667 -27.2591 22.8007 0.0 0.0 0.0 -29.064 37.4451 23.0279 -11.0453 0.294879 1.66682 33.2957 -21.6918 -4.7629 -16.3782 0.0 0.0 -0.0 0.0 -0.0 37.2481 44.7773 -18.7642 -0.134503 -0.00551522 -0.0199039 -15.7661 3.40216 -2.41877 22.1198 -0.0 -0.0 0.0 0.0 0.0 
2488.39 692.721 -1535.36 -5.18525 46.5781 -3.46257 2.61771 0.787077 3.42727 2.62406 0.567532 3.47033 2.65735 -0.0111609 3.51636 2.64051 0.543982 3.4741 -7.23454 20.6058 0.284764 -7.29981 38.233 4.697 -0.0 0.0 -0.0 -3.28071 17.8734 -2.92844 1.11527 -3.94299 47.6435 12.1635 -80.5073 10.3094 2.84494 0.0915142 -0.351814 0.0856457 -6.27251 -2.08259 -0.0 0.0 -0.0 11.6327 12.1777 -23.4328 -34.1123 46.2011 -61.1447 0.947594 25.1454 -0.211343 19.0972 -0.27302 2.41295 -5.85675 -26.6956 22.5943 0.0 0.0 0.0 -27.9445 37.4231 22.1323 -13.8863 0.318363 2.10205 32.7475 -22.5917 -4.74231 -16.6057 0.0 0.0 -0.0 0.0 -0.0 36.7879 44.7373 -18.5624 -0.741523 -0.029822 -0.109887 -13.3736 3.01999 -2.04449 21.9973 -0.0 -0.0 0.0 0.0 0.0 
2469.68 697.363 -1544.1 -5.94747 46.9913 -2.8135 2.60863 0.806973 3.54923 2.61545 0.579641 3.59331 2.65065 -0.0198659 3.63965 2.63259 0.55482 3.59722 -5.83696 20.8126 -0.188696 -5.63405 38.6992 3.72596 -0.0 0.0 -0.0 -3.37278 18.1583 -3.01163 0.172251 -3.74207 47.754 10.4223 -78.9792 8.59592 2.68584 0.0868589 -0.332024 0.0413425 -6.3251 -2.40412 -0.0 0.0 -0.0 12.038 11.9153 -24.3545 -31.8936 46.841 -61.3797 0.972303 25.7173 -0.221954 19.3996 -0.270834 2.45151 -5.80577 -26.3369 22.5742 0.0 0.0 0.0 -26.9704 37.2698 20.5033 -15.3672 0.322041 2.32922 32.7832 -23.2489 -4.77595 -16.7619 0.0 0.0 -0.0 0.0 -0.0 36.3298 44.418 -18.1531 -1.19091 -0.0472012 -0.176663 -12.4899 2.84128 -1.90637 22.0788 -0.0 -0.0 0.0 0.0 0.0 
2446.5 698.341 -1548.65 -5.6786 47.2925 -3.3639 2.54623 0.925633 3.70812 2.55362 0.687972 3.7594 2.5977 0.0563237 3.82133 2.57793 0.658692 3.76464 -3.19661 20.9249 -1.29259 -2.45079 39.2013 1.58727 -0.0 0.0 -0.0 -3.99772 18.7131 -3.84751 -2.26302 -3.62717 48.6909 12.9738 -81.0813 11.1093 2.5434 0.0826443 -0.314318 0.130267 -6.64962 -1.94185 -0.0 0.0 -0.0 11.6163 10.7846 -23.4103 -31.0096 47.0307 -61.4982 1.00819 26.5383 -0.23776 19.7022 -0.268442 2.49009 -5.58969 -24.9967 22.3094 0.0 0.0 0.0 -26.7718 37.0247 19.7006 -17.948 0.314418 2.72509 29.4954 -27.3251 -4.59275 -17.2088 0.0 0.0 -0.0 0.0 -0.0 34.4831 44.6577 -17.093 -3.66147 -0.133342 -0.546006 -11.2408 3.8984 -1.71995 22.1776 -0.0 -0.0 0.0 0.0 0.0 
2432.23 701.909 -1557.07 -5.92327 47.6271 -3.57578 2.60515 0.962366 3.88641 2.61327 0.713311 3.93965 2.661 0.0559556 4.00322 2.6393 0.686989 3.94432 -2.76798 20.3486 -2.9841 -1.8721 39.3409 -0.448017 -0.0 0.0 -0.0 -3.83499 18.9272 -3.55264 -2.84165 -3.38392 48.1461 11.1275 -79.6543 9.28886 2.49109 0.0810854 -0.307818 0.521096 -6.20056 0.88625 -0.0 0.0 -0.0 11.5186 10.8441 -23.1905 -26.0976 47.3519 -64.1772 0.826803 22.2726 -0.162759 20.3284 -0.262847 2.56987 -5.44757 -24.6506 21.6956 0.0 0.0 0.0 -26.2781 36.8916 19.0577 -18.4992 0.31048 2.80957 28.4711 -26.4001 -4.41858 -16.6463 0.0 0.0 -0.0 0.0 -0.0 32.7243 44.6963 -16.0225 -3.35439 -0.123504 -0.499906 -8.15199 2.6606 -1.23617 21.6999 -0.0 -0.0 0.0 0.0 0.0 
2420.87 702.116 -1562.96 -5.90389 47.4306 -3.90961 2.64747 0.976334 4.11601 2.65661 0.712678 4.16966 2.70684 0.0208796 4.22997 2.68254 0.688073 4.17379 -3.58615 20.9497 -0.90097 -2.93263 39.0323 2.1514 -0.0 0.0 -0.0 -4.10738 18.8381 -3.98623 -3.1994 -3.55737 48.2784 9.19896 -77.5714 7.398 2.43567 0.0794275 -0.300933 0.135649 -6.73562 -1.94212 -0.0 0.0 -0.0 12.0323 12.4508 -24.3346 -27.8596 47.85 -62.4338 0.985642 26.0238 -0.227774 20.1752 -0.264296 2.55036 -5.56444 -25.4824 21.7717 0.0 0.0 0.0 -24.8529 37.0505 18.2032 -19.8161 0.297781 3.01123 30.8476 -27.0666 -4.74314 -17.6217 0.0 0.0 -0.0 0.0 -0.0 31.5464 44.7533 -15.5043 -3.52824 -0.129104 -0.525999 -7.87052 1.66729 -1.18899 22.4652 -0.0 -0.0 0.0 0.0 0.0 
2406.84 705.566 -1566.12 -6.38079 47.577 -3.32192 2.66374 0.972793 4.18809 2.67322 0.704569 4.24137 2.72361 0.00237635 4.29939 2.69847 0.680733 4.24525 -3.11569 20.1441 -3.44286 -2.26836 39.3742 -0.82621 -0.0 0.0 -0.0 -4.20407 19.2916 -4.02878 -4.1499 -2.65273 48.6892 8.6569 -76.8259 6.86941 2.19174 0.0720508 -0.270648 0.233219 -7.26768 -1.50972 -0.0 0.0 -0.0 12.0284 12.4668 -24.3255 -26.7767 47.9154 -62.8011 0.971751 25.7046 -0.221715 20.0755 -0.265211 2.53766 -5.50504 -25.3494 21.5099 0.0 0.0 0.0 -22.9728 37.6749 16.796 -21.2178 0.279176 3.2255 31.8749 -28.4873 -4.94482 -17.831 0.0 0.0 -0.0 0.0 -0.0 30.4018 44.7449 -15.0138 -3.23752 -0.119695 -0.482374 -6.08659 0.963377 -0.914706 22.8186 -0.0 -0.0 0.0 0.0 0.0 
2389.97 707.583 -1571.26 -6.71699 47.9824 -2.83828 2.72802 0.911507 4.25304 2.73785 0.639286 4.30229 2.78379 -0.0676038 4.34892 2.75794 0.619428 4.30519 -3.0709 20.3387 -2.61142 -2.26169 39.096 0.0677722 -0.0 0.0 -0.0 -4.62965 20.8129 -4.30057 -6.18363 -2.90395 49.3493 9.35292 -77.7681 7.54841 2.16964 0.071376 -0.267906 0.304785 -6.41045 -0.662221 -0.0 0.0 -0.0 12.1298 12.8139 -24.5507 -26.2266 48.781 -62.8175 0.949407 25.1876 -0.212114 20.6519 -0.259613 2.61107 -5.41337 -25.212 21.0527 0.0 0.0 0.0 -22.7503 37.4635 16.1743 -21.4102 0.276215 3.25487 30.4398 -28.766 -4.78828 -18.038 0.0 0.0 -0.0 0.0 -0.0 29.6341 44.8141 -14.9984 -4.6365 -0.162938 -0.692715 -4.44291 1.24827 -0.666166 22.6559 -0.0 -0.0 0.0 0.0 0.0 
2380.15 704.526 -1575.42 -6.97148 48.3748 -1.77494 2.77797 0.867558 4.12537 2.78723 0.603527 4.1721 2.82909 -0.0784876 4.21472 2.80478 0.587543 4.17437 -2.75587 19.6509 -4.33109 -1.80799 39.0846 -1.97919 -0.0 0.0 -0.0 -4.70211 21.2497 -4.29888 -6.82328 -2.98714 49.5438 8.93622 -77.2208 7.14159 3.04998 0.0974325 -0.377337 0.068588 -3.17948 -0.883835 -0.0 0.0 -0.0 12.1366 14.3278 -24.5313 -22.8633 48.5977 -64.4731 0.864321 23.1784 -0.177253 22.035 -0.243171 2.78697 -5.20886 -26.1987 19.0668 0.0 0.0 0.0 -20.0782 36.728 13.6336 -25.0107 0.202615 3.80238 32.3921 -26.8928 -4.91485 -17.7376 0.0 0.0 -0.0 0.0 -0.0 29.2802 44.8156 -15.1664 -4.14633 -0.148372 -0.6189 -2.81503 2.63084 -0.422527 22.3742 -0.0 -0.0 0.0 0.0 0.0 
2366.18 703.8 -1581.75 -6.08229 48.9902 -2.81132 2.84093 0.905023 4.33113 2.85115 0.62786 4.37981 2.89664 -0.0827826 4.42373 2.86987 0.616219 4.38146 -2.62824 18.9479 -5.6379 -1.59777 38.7752 -3.52127 -0.0 0.0 -0.0 -4.90009 21.3608 -4.55937 -8.22985 -2.96656 49.6365 7.81621 -75.476 6.0531 3.04303 0.0972332 -0.37647 -0.0221717 -1.16391 -0.639743 -0.0 0.0 -0.0 12.2046 15.3283 -24.6547 -21.1011 48.8005 -65.8529 0.805583 21.7549 -0.154805 22.7173 -0.233497 2.87358 -5.0682 -26.5036 18.0056 0.0 0.0 0.0 -17.4718 36.1098 11.4199 -28.3897 0.102368 4.3112 34.1891 -25.4629 -5.03931 -17.5406 0.0 0.0 -0.0 0.0 -0.0 29.2837 44.8429 -16.0474 -4.26936 -0.152087 -0.637415 -0.551766 4.95042 -0.0831095 22.2232 -0.0 -0.0 0.0 0.0 0.0 
2351.01 704.044 -1589.26 -6.93384 48.863 -1.64635 2.92397 0.994904 4.47024 2.9348 0.708734 4.52434 2.98788 -0.0186032 4.57936 2.95932 0.704103 4.52506 -2.43396 18.3552 -6.62709 -1.32026 38.4249 -4.73886 -0.0 0.0 -0.0 -5.05163 21.6618 -4.70224 -9.29706 -2.80863 49.848 7.9475 -75.7045 6.18026 3.79559 0.118183 -0.470318 -0.103899 0.57543 -0.450385 -0.0 0.0 -0.0 12.3598 17.1467 -24.9338 -19.2739 49.5181 -67.3049 0.81744 22.0447 -0.159227 23.5345 -0.220554 2.97716 -4.9206 -26.8606 16.8798 0.0 0.0 0.0 -11.6429 35.605 7.93492 -30.6485 0.0186796 4.64773 35.3628 -24.2229 -5.10075 -17.7683 0.0 0.0 -0.0 0.0 -0.0 28.9176 45.8139 -16.5325 -3.85617 -0.139452 -0.575263 1.36331 6.28044 0.205514 23.0832 -0.0 -0.0 0.0 0.0 0.0 
2340.94 701.793 -1592.63 -8.92541 49.9134 0.263642 3.35896 0.947398 4.39331 3.36945 0.666205 4.44455 3.41698 -0.0143169 4.49408 3.38948 0.694909 4.44016 -0.208158 17.9259 -7.51054 1.38362 38.0602 -6.63477 -0.0 0.0 -0.0 -5.28499 21.8522 -4.98993 -10.8553 -2.88029 50.1641 7.96375 -75.7323 6.196 4.4287 0.134851 -0.549473 0.0903189 2.32036 1.57392 -0.0 0.0 -0.0 12.7826 19.1487 -25.7978 -16.8765 50.131 -68.6317 0.701063 19.1514 -0.118272 24.9447 -0.194746 3.15545 -4.51178 -27.0354 14.3948 0.0 0.0 0.0 -9.92502 34.4565 6.65087 -33.79 -0.119661 5.10987 37.799 -23.799 -5.32596 -14.7849 0.0 0.0 -0.0 0.0 -0.0 28.3155 46.2084 -15.3259 -4.92321 -0.171165 -0.735947 0.646967 5.16144 0.0972369 26.5812 -0.0 -0.0 0.0 0.0 0.0 
2329.42 708.922 -1599.91 -10.3048 51.2483 1.21924 3.68539 0.852432 4.61594 3.69706 0.557307 4.6607 3.73662 -0.128856 4.69206 3.70644 0.612967 4.65372 0.0980429 18.6184 -6.33008 1.68074 38.3233 -5.37985 -0.0 0.0 -0.0 -5.84328 22.1195 -5.72329 -13.5294 -3.84071 50.6016 7.41662 -74.7336 5.66692 4.17681 0.128324 -0.517958 0.0738611 5.06222 2.6025 -0.0 0.0 -0.0 13.273 23.3628 -26.5962 -15.8471 51.4811 -70.6072 0.637478 17.5256 -0.0982639 26.4599 -0.162135 3.34625 -3.91054 -26.9633 11.0281 0.0 0.0 0.0 -8.63853 33.5475 5.53377 -33.8588 -0.122974 5.11991 36.8395 -26.9554 -5.40325 -12.6437 0.0 0.0 -0.0 0.0 -0.0 26.648 46.2628 -14.1325 -1.79232 -0.0696378 -0.266233 -3.8103 2.31875 -0.572525 27.1429 -0.0 -0.0 0.0 0.0 0.0 
